<svg xmlns="http://www.w3.org/2000/svg" width="860" height="193.5" viewBox="0 0 860 193.5" font-family="ui-monospace, SFMono-Regular, Menlo, Consolas, monospace">
  <defs>
    <linearGradient id="g-bg" x1="0" y1="0" x2="0" y2="1">
      <stop offset="0" stop-color="#0f172a"/>
      <stop offset="1" stop-color="#0d1117"/>
    </linearGradient>
    <linearGradient id="g-top" x1="0" y1="0" x2="0" y2="1">
      <stop offset="0" stop-color="#ffffff" stop-opacity="0.18"/>
      <stop offset="1" stop-color="#ffffff" stop-opacity="0"/>
    </linearGradient>
    <filter id="g-blur-lg" x="-30%" y="-30%" width="160%" height="160%">
      <feGaussianBlur stdDeviation="50"/>
    </filter>
    <filter id="g-blur-sm" x="-20%" y="-20%" width="140%" height="140%">
      <feGaussianBlur stdDeviation="24"/>
    </filter>
  </defs>
  <!-- Gradient background -->
  <rect width="860" height="193.5" rx="12" fill="url(#g-bg)"/>
  <!-- Colour blobs -->
  <circle cx="155" cy="68" r="120" fill="#22D3EE" opacity="0.12" filter="url(#g-blur-lg)"/>
  <circle cx="671" cy="126" r="86" fill="#38BDF8"  opacity="0.10" filter="url(#g-blur-lg)"/>
  <circle cx="430" cy="29" r="60" fill="#22D3EE" opacity="0.08" filter="url(#g-blur-sm)"/>
  <!-- Glass pane surface (8% white) -->
  <rect x="0" y="0" width="860" height="193.5" rx="12" fill="#ffffff" fill-opacity="0.08"/>
  <!-- Glass border (18% white) -->
  <rect x="0.5" y="0.5" width="859" height="192.5" rx="12" fill="none" stroke="#ffffff" stroke-opacity="0.18" stroke-width="1"/>
  <!-- Top light-catching highlight -->
  <rect x="2" y="2" width="856" height="6" rx="12" fill="url(#g-top)"/>
  <!-- Title bar chrome (solid, not glass) -->
  <line x1="0" y1="30" x2="860" y2="30" stroke="#38BDF8" stroke-opacity="0.35"/>
  <circle cx="20" cy="15.0" r="5" fill="#ff5f56"/>
  <circle cx="36" cy="15.0" r="5" fill="#ffbd2e"/>
  <circle cx="52" cy="15.0" r="5" fill="#27c93f"/>
  <text x="430.0" y="19.0" fill="#38BDF8" font-size="12" text-anchor="middle" font-family="ui-monospace, SFMono-Regular, Menlo, Consolas, monospace">akileswaran04@github: ~$ cat /proc/projects</text>
  <text x="20" y="60.0" font-size="14" font-weight="700"><tspan fill="#14b8a6">akileswaran04</tspan><tspan fill="#38BDF8">@</tspan><tspan fill="#22D3EE">github</tspan></text><line x1="188" y1="56.0" x2="840" y2="56.0" stroke="#22D3EE" stroke-opacity="0.6"/>
  <text x="20" y="80.5" fill="#22D3EE" font-size="12.5" font-weight="700">-- Projects</text><line x1="108" y1="76.5" x2="840" y2="76.5" stroke="#22D3EE" stroke-opacity="0.6"/>
  <text x="20" y="101.0" fill="#7d8590" font-size="12.5">01</text>
  <text x="60" y="101.0" fill="#e6edf3" font-size="12.5" font-weight="600">ODYSSEY</text>
  <text x="200" y="101.0" fill="#e6edf3" font-size="12.5">LLM · EBM · LangChain</text>
  <text x="580" y="101.0" font-size="12.5"><tspan fill="#38BDF8">○ processing</tspan></text>
  <text x="20" y="121.5" fill="#7d8590" font-size="12.5">02</text>
  <a href="https://sentri-final.streamlit.app" target="_blank"><text x="60" y="121.5" fill="#22D3EE" font-size="12.5" font-weight="600">SENTRI ▸</text></a>
  <text x="200" y="121.5" fill="#e6edf3" font-size="12.5">Streamlit · FastAPI · XGBoost</text>
  <text x="580" y="121.5" font-size="12.5"><tspan fill="#22D3EE">● live</tspan></text>
  <text x="20" y="142.0" fill="#7d8590" font-size="12.5">03</text>
  <text x="60" y="142.0" fill="#e6edf3" font-size="12.5" font-weight="600">Gridlock</text>
  <text x="200" y="142.0" fill="#e6edf3" font-size="12.5">LightGBM · XGBoost · Hackathon</text>
  <text x="580" y="142.0" font-size="12.5"><tspan fill="#38BDF8">○ archive</tspan></text>
  <text x="20" y="162.5" fill="#7d8590" font-size="12.5">04</text>
  <a href="https://csau.vercel.app" target="_blank"><text x="60" y="162.5" fill="#22D3EE" font-size="12.5" font-weight="600">Riddle Rush ▸</text></a>
  <text x="200" y="162.5" fill="#e6edf3" font-size="12.5">React · Three.js · Supabase</text>
  <text x="580" y="162.5" font-size="12.5"><tspan fill="#22D3EE">● live</tspan></text>
  <text x="20" y="183.0" fill="#7d8590" font-size="12.5">05</text>
  <text x="60" y="183.0" fill="#e6edf3" font-size="12.5" font-weight="600">DayLog</text>
  <text x="200" y="183.0" fill="#e6edf3" font-size="12.5">React · Node.js · Firebase</text>
  <text x="580" y="183.0" font-size="12.5"><tspan fill="#34D399">✓ done</tspan></text>
</svg>